<svg xmlns="http://www.w3.org/2000/svg" viewBox="0 0 720 560" font-family="system-ui,Segoe UI,Roboto,sans-serif">
<rect width="720" height="560" fill="#ffffff"/>
<text x="300" y="34" text-anchor="middle" font-size="22" font-weight="700" fill="#1a1a1a">9 · Data Science</text>
<text x="300" y="56" text-anchor="middle" font-size="13" fill="#666">Galerina governs the data; Python/R crunch it</text>
<polygon points="300.0,258.0 336.4,279.0 336.4,321.0 300.0,342.0 263.6,321.0 263.6,279.0" fill="none" stroke="#e3e3e3" stroke-width="1"/>
<polygon points="300.0,216.0 372.7,258.0 372.7,342.0 300.0,384.0 227.3,342.0 227.3,258.0" fill="none" stroke="#e3e3e3" stroke-width="1"/>
<polygon points="300.0,174.0 409.1,237.0 409.1,363.0 300.0,426.0 190.9,363.0 190.9,237.0" fill="none" stroke="#e3e3e3" stroke-width="1"/>
<polygon points="300.0,132.0 445.5,216.0 445.5,384.0 300.0,468.0 154.5,384.0 154.5,216.0" fill="none" stroke="#e3e3e3" stroke-width="1"/>
<polygon points="300.0,90.0 481.9,195.0 481.9,405.0 300.0,510.0 118.1,405.0 118.1,195.0" fill="none" stroke="#e3e3e3" stroke-width="1"/>
<line x1="300" y1="300" x2="300.0" y2="90.0" stroke="#d0d0d0" stroke-width="1"/>
<text x="300.0" y="76.0" text-anchor="middle" font-size="12.5" font-weight="600" fill="#333">PII Protection</text>
<line x1="300" y1="300" x2="481.9" y2="195.0" stroke="#d0d0d0" stroke-width="1"/>
<text x="497.5" y="190.0" text-anchor="start" font-size="12.5" font-weight="600" fill="#333">Data Eng</text>
<line x1="300" y1="300" x2="481.9" y2="405.0" stroke="#d0d0d0" stroke-width="1"/>
<text x="497.5" y="418.0" text-anchor="start" font-size="12.5" font-weight="600" fill="#333">Data Analysis</text>
<line x1="300" y1="300" x2="300.0" y2="510.0" stroke="#d0d0d0" stroke-width="1"/>
<text x="300.0" y="532.0" text-anchor="middle" font-size="12.5" font-weight="600" fill="#333">Machine Learning</text>
<line x1="300" y1="300" x2="118.1" y2="405.0" stroke="#d0d0d0" stroke-width="1"/>
<text x="102.5" y="418.0" text-anchor="end" font-size="12.5" font-weight="600" fill="#333">Data Viz</text>
<line x1="300" y1="300" x2="118.1" y2="195.0" stroke="#d0d0d0" stroke-width="1"/>
<text x="102.5" y="190.0" text-anchor="end" font-size="12.5" font-weight="600" fill="#333">Domain Expertise</text>
<polygon points="300.0,90.0 372.7,258.0 354.6,331.5 300.0,384.0 263.6,321.0 136.3,205.5" fill="#e8590c" fill-opacity="0.14" stroke="#e8590c" stroke-width="2.5" stroke-linejoin="round"/>
<circle cx="300.0" cy="90.0" r="3" fill="#e8590c"/>
<circle cx="372.7" cy="258.0" r="3" fill="#e8590c"/>
<circle cx="354.6" cy="331.5" r="3" fill="#e8590c"/>
<circle cx="300.0" cy="384.0" r="3" fill="#e8590c"/>
<circle cx="263.6" cy="321.0" r="3" fill="#e8590c"/>
<circle cx="136.3" cy="205.5" r="3" fill="#e8590c"/>
<polygon points="300.0,237.0 463.7,205.5 481.9,405.0 300.0,510.0 154.5,384.0 209.1,247.5" fill="#3572a5" fill-opacity="0.14" stroke="#3572a5" stroke-width="2.5" stroke-linejoin="round"/>
<circle cx="300.0" cy="237.0" r="3" fill="#3572a5"/>
<circle cx="463.7" cy="205.5" r="3" fill="#3572a5"/>
<circle cx="481.9" cy="405.0" r="3" fill="#3572a5"/>
<circle cx="300.0" cy="510.0" r="3" fill="#3572a5"/>
<circle cx="154.5" cy="384.0" r="3" fill="#3572a5"/>
<circle cx="209.1" cy="247.5" r="3" fill="#3572a5"/>
<polygon points="300.0,258.0 390.9,247.5 463.7,394.5 300.0,426.0 136.3,394.5 227.3,258.0" fill="#276dc3" fill-opacity="0.14" stroke="#276dc3" stroke-width="2.5" stroke-linejoin="round"/>
<circle cx="300.0" cy="258.0" r="3" fill="#276dc3"/>
<circle cx="390.9" cy="247.5" r="3" fill="#276dc3"/>
<circle cx="463.7" cy="394.5" r="3" fill="#276dc3"/>
<circle cx="300.0" cy="426.0" r="3" fill="#276dc3"/>
<circle cx="136.3" cy="394.5" r="3" fill="#276dc3"/>
<circle cx="227.3" cy="258.0" r="3" fill="#276dc3"/>
<text x="600" y="98" text-anchor="middle" font-size="12" font-weight="700" fill="#888">LEGEND</text>
<rect x="556" y="110" width="16" height="6" rx="2" fill="#e8590c"/>
<text x="578" y="116" font-size="13" font-weight="700" fill="#1a1a1a">Galerina</text>
<rect x="556" y="134" width="16" height="6" rx="2" fill="#3572a5"/>
<text x="578" y="140" font-size="13" font-weight="500" fill="#1a1a1a">Python</text>
<rect x="556" y="158" width="16" height="6" rx="2" fill="#276dc3"/>
<text x="578" y="164" font-size="13" font-weight="500" fill="#1a1a1a">R</text>
<text x="300" y="546" text-anchor="middle" font-size="11" fill="#aaa">0 (center) → 10 (edge) · Galerina vs mainstream languages</text>
</svg>