<svg xmlns="http://www.w3.org/2000/svg" viewBox="0 0 720 560" width="100%" height="100%" preserveAspectRatio="xMidYMid meet" font-family="system-ui,Segoe UI,Roboto,sans-serif">
<rect width="720" height="560" fill="#ffffff"/>
<text x="300" y="34" text-anchor="middle" font-size="22" font-weight="700" fill="#1a1a1a">11 · Language &amp; Type System</text>
<text x="300" y="56" text-anchor="middle" font-size="13" fill="#666">governance and value-state live IN the type system</text>
<polygon points="300.0,258.0 336.4,279.0 336.4,321.0 300.0,342.0 263.6,321.0 263.6,279.0" fill="none" stroke="#e3e3e3" stroke-width="1"/>
<polygon points="300.0,216.0 372.7,258.0 372.7,342.0 300.0,384.0 227.3,342.0 227.3,258.0" fill="none" stroke="#e3e3e3" stroke-width="1"/>
<polygon points="300.0,174.0 409.1,237.0 409.1,363.0 300.0,426.0 190.9,363.0 190.9,237.0" fill="none" stroke="#e3e3e3" stroke-width="1"/>
<polygon points="300.0,132.0 445.5,216.0 445.5,384.0 300.0,468.0 154.5,384.0 154.5,216.0" fill="none" stroke="#e3e3e3" stroke-width="1"/>
<polygon points="300.0,90.0 481.9,195.0 481.9,405.0 300.0,510.0 118.1,405.0 118.1,195.0" fill="none" stroke="#e3e3e3" stroke-width="1"/>
<line x1="300" y1="300" x2="300.0" y2="90.0" stroke="#d0d0d0" stroke-width="1"/>
<text x="300.0" y="76.0" text-anchor="middle" font-size="12.5" font-weight="600" fill="#333">Value-state / Taint</text>
<line x1="300" y1="300" x2="481.9" y2="195.0" stroke="#d0d0d0" stroke-width="1"/>
<text x="497.5" y="190.0" text-anchor="start" font-size="12.5" font-weight="600" fill="#333">Effect System</text>
<line x1="300" y1="300" x2="481.9" y2="405.0" stroke="#d0d0d0" stroke-width="1"/>
<text x="497.5" y="418.0" text-anchor="start" font-size="12.5" font-weight="600" fill="#333">Governance in Types</text>
<line x1="300" y1="300" x2="300.0" y2="510.0" stroke="#d0d0d0" stroke-width="1"/>
<text x="300.0" y="532.0" text-anchor="middle" font-size="12.5" font-weight="600" fill="#333">Domain / Money Types</text>
<line x1="300" y1="300" x2="118.1" y2="405.0" stroke="#d0d0d0" stroke-width="1"/>
<text x="102.5" y="418.0" text-anchor="end" font-size="12.5" font-weight="600" fill="#333">Exhaustive Match</text>
<line x1="300" y1="300" x2="118.1" y2="195.0" stroke="#d0d0d0" stroke-width="1"/>
<text x="102.5" y="190.0" text-anchor="end" font-size="12.5" font-weight="600" fill="#333">Fail-closed Default</text>
<polygon points="300.0,90.0 481.9,195.0 481.9,405.0 300.0,510.0 136.3,394.5 118.1,195.0" fill="#e8590c" fill-opacity="0.14" stroke="#e8590c" stroke-width="2.5" stroke-linejoin="round"/>
<circle cx="300.0" cy="90.0" r="3" fill="#e8590c"/>
<circle cx="481.9" cy="195.0" r="3" fill="#e8590c"/>
<circle cx="481.9" cy="405.0" r="3" fill="#e8590c"/>
<circle cx="300.0" cy="510.0" r="3" fill="#e8590c"/>
<circle cx="136.3" cy="394.5" r="3" fill="#e8590c"/>
<circle cx="118.1" cy="195.0" r="3" fill="#e8590c"/>
<polygon points="300.0,237.0 336.4,279.0 300.0,300.0 300.0,405.0 136.3,394.5 245.4,268.5" fill="#b7410e" fill-opacity="0.14" stroke="#b7410e" stroke-width="2.5" stroke-linejoin="round"/>
<circle cx="300.0" cy="237.0" r="3" fill="#b7410e"/>
<circle cx="336.4" cy="279.0" r="3" fill="#b7410e"/>
<circle cx="300.0" cy="300.0" r="3" fill="#b7410e"/>
<circle cx="300.0" cy="405.0" r="3" fill="#b7410e"/>
<circle cx="136.3" cy="394.5" r="3" fill="#b7410e"/>
<circle cx="245.4" cy="268.5" r="3" fill="#b7410e"/>
<polygon points="300.0,258.0 318.2,289.5 300.0,300.0 300.0,384.0 209.1,352.5 281.8,289.5" fill="#3178c6" fill-opacity="0.14" stroke="#3178c6" stroke-width="2.5" stroke-linejoin="round"/>
<circle cx="300.0" cy="258.0" r="3" fill="#3178c6"/>
<circle cx="318.2" cy="289.5" r="3" fill="#3178c6"/>
<circle cx="300.0" cy="300.0" r="3" fill="#3178c6"/>
<circle cx="300.0" cy="384.0" r="3" fill="#3178c6"/>
<circle cx="209.1" cy="352.5" r="3" fill="#3178c6"/>
<circle cx="281.8" cy="289.5" r="3" fill="#3178c6"/>
<polygon points="300.0,279.0 318.2,289.5 300.0,300.0 300.0,342.0 245.4,331.5 281.8,289.5" fill="#3572a5" fill-opacity="0.14" stroke="#3572a5" stroke-width="2.5" stroke-linejoin="round"/>
<circle cx="300.0" cy="279.0" r="3" fill="#3572a5"/>
<circle cx="318.2" cy="289.5" r="3" fill="#3572a5"/>
<circle cx="300.0" cy="300.0" r="3" fill="#3572a5"/>
<circle cx="300.0" cy="342.0" r="3" fill="#3572a5"/>
<circle cx="245.4" cy="331.5" r="3" fill="#3572a5"/>
<circle cx="281.8" cy="289.5" r="3" fill="#3572a5"/>
<text x="600" y="98" text-anchor="middle" font-size="12" font-weight="700" fill="#888">LEGEND</text>
<rect x="556" y="110" width="16" height="6" rx="2" fill="#e8590c"/>
<text x="578" y="116" font-size="13" font-weight="700" fill="#1a1a1a">Galerina</text>
<rect x="556" y="134" width="16" height="6" rx="2" fill="#b7410e"/>
<text x="578" y="140" font-size="13" font-weight="500" fill="#1a1a1a">Rust</text>
<rect x="556" y="158" width="16" height="6" rx="2" fill="#3178c6"/>
<text x="578" y="164" font-size="13" font-weight="500" fill="#1a1a1a">TypeScript</text>
<rect x="556" y="182" width="16" height="6" rx="2" fill="#3572a5"/>
<text x="578" y="188" font-size="13" font-weight="500" fill="#1a1a1a">Python</text>
<text x="300" y="546" text-anchor="middle" font-size="11" fill="#aaa">0 (center) → 10 (edge) · Galerina vs mainstream languages</text>
</svg>